<?xml version="1.0" encoding="utf-8"?>
<!-- Svg Vector Icons : http://www.onlinewebfonts.com/icon -->
<!DOCTYPE svg PUBLIC "-//W3C//DTD SVG 1.1//EN" "http://www.w3.org/Graphics/SVG/1.1/DTD/svg11.dtd">
<svg version="1.1" xmlns="http://www.w3.org/2000/svg" xmlns:xlink="http://www.w3.org/1999/xlink" x="0px" y="0px" viewBox="0 0 1000 1000" enable-background="new 0 0 1000 1000" xml:space="preserve">
<metadata> Svg Vector Icons : http://www.onlinewebfonts.com/icon </metadata>
<g><path d="M193.9,78.6c4.9,3.7,13.9,11.4,27.5,26.8c15.4,17.5,32.7,40.4,50,66.3c35.1,52.4,56,95,60.8,109.2c-1.1,7.8-5.9,16-14,29.3c-12.8,20.9-30.3,49.6-30.3,89.6c0,14.7,0,59.4,122.5,180.7c30.2,29.9,61.3,57.4,87.5,77.5c39.9,30.5,66.4,43,91.2,43c35.2,0,64.4-15.2,87.9-27.4c16.6-8.6,31.1-16.2,43.5-17c11.8,3.2,52.1,22.2,115,66.1c25.5,17.8,50.1,36.6,69.2,52.9c14.8,12.7,23.5,21.3,28.3,26.6c-3.8,27.4-19.6,55.6-44.7,79.2c-26.7,25.1-61.1,41.3-87.5,41.3c-61.4,0-138.6-26-223.3-75.2C495.7,799.9,410.6,733,331.2,654c-78-77.6-144.4-160.9-192.1-240.7c-23.9-40-42.2-77.9-54.6-112.7c-12.1-34.1-18.3-64.4-18.3-90.1c0-10.4,4.5-23.4,13-37.6c9.4-15.7,23.2-32,40.1-47.3c15.7-14.3,33.6-27.2,50.4-36.3C180.5,83.3,188.7,80.2,193.9,78.6 M199.3,21.1C143.6,21.1,10,120,10,210.5c0,264.5,487.2,768.4,790.7,768.4c83.5,0,189.3-87.7,189.3-189.3c0-34.8-217.2-189.3-267.3-189.3c-51.5,0-89.1,44.5-133.6,44.5c-44.5,0-245-196.3-245-245c0-48.7,44.5-72.4,44.5-122.5C388.6,241.1,255,21.1,199.3,21.1L199.3,21.1L199.3,21.1z"/></g>
</svg>